<?xml version="1.0" standalone="no"?>
<!DOCTYPE svg PUBLIC "-//W3C//DTD SVG 20010904//EN"
 "http://www.w3.org/TR/2001/REC-SVG-20010904/DTD/svg10.dtd">
<svg version="1.0" xmlns="http://www.w3.org/2000/svg"
 width="700.000000pt" height="700.000000pt" viewBox="0 0 700.000000 700.000000"
 preserveAspectRatio="xMidYMid meet">
<metadata>
Created by potrace 1.14, written by Peter Selinger 2001-2017
</metadata>
<g transform="translate(0.000000,700.000000) scale(0.100000,-0.100000)"
fill="#000000" stroke="none">
<path d="M0 5031 l0 -1968 1094 0 1094 0 0 961 c1 529 1 971 1 984 l1 22 1310
0 1310 0 0 -27 c1 -16 1 -458 2 -984 l0 -956 1094 0 1094 0 0 1968 0 1969
-3500 0 -3500 0 0 -1969z"/>
<path d="M2189 1893 c0 -103 0 -1842 0 -1870 l1 -23 1310 0 1310 0 0 138 c1
185 1 1759 1 1800 l-1 32 -1310 0 -1310 0 -1 -77z"/>
</g>
</svg>
